<?xml version="1.0" standalone="no"?>
<!DOCTYPE svg PUBLIC "-//W3C//DTD SVG 20010904//EN"
 "http://www.w3.org/TR/2001/REC-SVG-20010904/DTD/svg10.dtd">
<svg version="1.0" xmlns="http://www.w3.org/2000/svg"
 width="1067.000000pt" height="1067.000000pt" viewBox="0 0 1067.000000 1067.000000"
 preserveAspectRatio="xMidYMid meet">
<metadata>
Created by potrace 1.11, written by Peter Selinger 2001-2013
</metadata>
<g transform="translate(0.000000,1067.000000) scale(0.100000,-0.100000)"
fill="#000000" stroke="none">
<path d="M4303 10183 c3 -5 -476 -9 -1065 -10 l-1069 -2 -63 -29 c-60 -28
-117 -77 -163 -139 -61 -82 -83 -265 -62 -498 8 -89 12 -286 11 -540 -2 -667
-3 -1599 -1 -1610 1 -5 0 -14 -1 -20 -5 -16 -7 -510 -2 -497 7 22 22 1 21 -31
0 -26 -2 -28 -8 -12 -10 26 -24 -173 -15 -220 4 -23 2 -35 -5 -35 -6 0 -11 -8
-11 -17 -1 -14 -4 -13 -14 6 -23 42 -29 5 -21 -151 10 -206 22 -279 24 -141 1
98 14 144 24 86 7 -37 3 -121 -6 -129 -4 -4 -7 -19 -6 -33 l1 -26 8 25 c8 25
8 25 9 -4 1 -16 3 -27 5 -25 8 8 12 108 5 111 -3 2 -3 23 1 48 l7 45 3 -45 3
-45 7 35 c5 29 7 23 11 -38 2 -39 0 -72 -5 -72 -5 0 -6 -21 -3 -47 4 -42 4
-45 -9 -29 -23 32 -26 12 -5 -45 17 -48 26 -127 12 -114 -2 3 -11 -18 -18 -46
-12 -46 -11 -54 3 -70 9 -10 17 -40 19 -74 4 -69 41 -131 126 -210 64 -59 60
-76 -6 -23 l-40 31 30 -31 c17 -18 53 -40 80 -51 28 -10 59 -22 70 -26 l20 -8
-20 17 c-19 16 -18 16 19 10 28 -5 37 -4 32 5 -5 7 -1 9 8 5 25 -9 19 -24 -9
-24 -14 0 -25 -5 -25 -11 0 -7 10 -9 25 -7 14 3 25 2 25 -3 0 -4 -15 -10 -32
-12 l-33 -4 33 -1 c31 -2 32 -3 32 -49 1 -39 3 -44 11 -30 6 10 8 29 5 43 -5
18 -2 24 10 24 13 0 15 -7 9 -37 -4 -21 -13 -50 -21 -65 -8 -15 -14 -45 -14
-66 0 -38 -2 -40 -37 -47 -115 -21 -244 -128 -283 -233 -12 -31 -26 -82 -31
-112 -13 -80 -11 -262 5 -360 17 -108 9 -185 -25 -224 -41 -48 -89 -92 -89
-81 0 3 -10 -3 -22 -15 -12 -11 -25 -20 -29 -20 -21 0 7 -94 42 -147 32 -46
89 -83 89 -57 0 8 6 14 14 14 8 0 17 8 19 17 5 19 9 -209 8 -382 -4 -459 -7
-1607 -4 -1597 8 22 23 12 23 -15 0 -19 -3 -24 -9 -15 -10 17 -26 -198 -16
-228 4 -11 2 -20 -4 -20 -6 0 -11 -12 -12 -27 -1 -27 -1 -27 -10 4 -5 18 -15
33 -21 33 -8 0 -9 -43 -4 -157 10 -209 23 -279 25 -129 1 82 4 107 12 99 13
-13 18 -142 7 -150 -5 -2 -7 -19 -7 -36 l1 -32 8 30 7 30 5 -35 c4 -23 6 -14
6 30 0 94 1 99 14 75 13 -22 18 -186 6 -179 -5 3 -8 12 -8 20 0 8 -4 14 -10
14 -5 0 -10 -3 -10 -7 1 -21 29 -85 53 -120 15 -21 27 -47 27 -57 0 -9 24 -43
53 -74 28 -31 42 -48 29 -38 -12 11 -24 17 -27 14 -9 -8 73 -60 84 -54 5 4 38
-3 72 -14 47 -16 75 -20 111 -15 26 4 72 3 101 -1 l52 -8 -45 -7 -45 -6 50 -1
c28 -1 55 2 60 7 6 5 32 16 60 24 l50 14 -73 7 c-39 4 -78 3 -86 -1 -19 -10
-247 2 -255 14 -3 5 -26 21 -51 35 -47 27 -78 56 -79 73 -1 6 -5 11 -11 11 -5
1 -13 3 -17 4 -5 1 -11 2 -15 1 -4 0 -5 6 -1 14 5 13 7 13 19 -2 7 -10 14 -13
14 -7 0 15 -25 36 -33 28 -4 -4 -11 6 -17 22 -6 16 -16 31 -21 35 -10 6 -13
852 -4 994 2 33 7 362 9 730 3 369 6 673 6 678 0 4 4 7 9 7 8 0 15 -1041 13
-1882 -2 -409 0 -441 18 -501 25 -80 81 -146 153 -181 52 -25 55 -25 377 -30
179 -3 578 -5 888 -5 l563 -1 -3 -22 c-3 -22 -8 -23 -108 -28 -58 -3 -175 -3
-260 0 l-155 5 115 5 115 6 -145 1 c-89 1 -137 -2 -125 -7 18 -8 17 -9 -7 -9
-15 -1 -29 3 -32 8 -3 4 -121 9 -261 10 -184 1 -254 -2 -249 -10 5 -8 1 -8
-14 0 -14 7 -60 9 -134 6 -75 -3 -106 -2 -93 4 17 8 16 10 -12 10 -24 1 -31
-3 -29 -16 2 -15 15 -18 77 -21 41 -1 137 -6 214 -11 l140 -8 -137 -2 c-85 0
-138 -5 -138 -11 0 -5 -7 -10 -16 -10 -8 0 -13 4 -10 9 7 11 -104 20 -129 10
-14 -5 -1 -8 39 -8 85 -1 62 -13 -36 -18 -45 -2 -85 -6 -87 -9 -6 -6 193 -6
944 -4 1402 5 2033 5 2310 -3 277 -7 291 -8 307 -28 10 -12 24 -19 32 -16 8 3
16 1 18 -5 3 -7 12 -7 28 3 14 7 29 12 33 11 4 -1 16 2 26 8 12 6 123 6 322 0
615 -19 782 -20 809 -5 l25 14 -25 1 c-15 0 -30 4 -35 9 -6 5 -23 11 -40 14
-16 2 26 5 95 6 467 6 737 15 755 25 18 10 17 11 -15 15 l-35 4 30 8 c17 5
-216 7 -516 4 -528 -3 -546 -3 -557 16 -15 23 -25 23 248 23 135 1 212 5 224
12 17 10 12 12 -35 16 -30 2 -102 4 -161 4 -60 -1 -108 3 -108 7 0 5 -21 8
-47 7 -71 -4 -93 -1 -93 11 0 7 210 10 683 9 475 -1 691 1 710 9 37 15 42 14
27 -4 -7 -8 -21 -15 -31 -15 -11 0 -19 -4 -19 -9 0 -5 -9 -11 -20 -14 -29 -7
-25 -36 8 -48 75 -30 213 11 274 80 17 19 42 60 56 91 29 61 29 66 17 386 l-7
181 23 -1 c23 -1 24 1 24 79 0 129 -15 708 -21 852 -5 97 -3 137 5 147 9 11
10 76 4 273 -4 142 -8 371 -8 508 0 138 -2 225 -5 195 -3 -30 -5 17 -3 105 3
194 3 197 20 183 16 -13 17 49 3 237 -6 72 -10 200 -11 286 0 214 -12 315 -44
388 -47 103 -168 199 -282 222 l-63 13 1 146 c1 88 4 133 9 115 7 -29 8 -29 9
-4 1 24 5 27 59 33 81 10 166 58 209 120 50 73 66 139 59 249 -14 211 -17 405
-6 412 5 3 10 1 10 -6 0 -8 5 -8 16 2 14 11 15 35 10 184 -3 93 -8 276 -11
405 -3 129 -8 301 -11 382 -5 108 -3 152 5 162 13 15 12 26 -5 691 -4 172 -3
273 4 298 7 25 7 48 1 70 -14 44 -19 219 -7 234 6 7 7 20 4 29 -6 15 -4 15 10
3 15 -12 15 3 9 181 -4 107 -9 198 -11 202 -3 4 -5 87 -5 185 0 98 -4 273 -8
388 -7 200 -9 213 -35 270 -31 69 -88 132 -163 180 -91 59 -97 60 -548 56
-225 -2 -426 -4 -445 -5 -19 0 -52 3 -73 7 -22 5 -37 5 -34 0 3 -4 -59 -8
-136 -9 -95 0 -122 2 -82 6 l60 7 -62 1 c-35 1 -63 -2 -63 -7 0 -4 -26 -11
-57 -14 -32 -3 -59 -11 -61 -17 -2 -5 -8 -10 -13 -10 -6 0 -8 4 -5 9 10 15
-132 21 -399 16 -143 -3 -303 -4 -355 -4 -52 1 -156 1 -230 0 -74 -1 -181 -2
-236 -2 -56 -1 -112 2 -124 6 -16 5 -20 4 -15 -5 5 -8 2 -10 -11 -6 -22 6
-110 7 -201 2 -35 -1 -63 1 -63 6 0 14 -48 9 -65 -8 -11 -11 -19 -13 -28 -6
-17 14 -295 23 -303 10 -4 -5 -24 -8 -45 -6 -22 2 -39 0 -39 -4 0 -11 -38 -10
-42 1 -1 5 -19 11 -38 15 -28 5 -30 4 -12 -4 12 -5 22 -12 22 -16 0 -4 -75 -4
-167 0 -93 4 -186 7 -208 7 -30 -1 -36 1 -25 9 11 7 3 10 -30 10 -33 0 -41 -3
-30 -10 11 -7 6 -10 -20 -9 -19 0 -29 3 -22 6 19 7 14 23 -7 23 -11 0 -23 5
-26 10 -3 6 -11 10 -16 10 -6 0 -8 -3 -6 -7z m2820 -150 c-7 -2 -21 -2 -30 0
-10 3 -4 5 12 5 17 0 24 -2 18 -5z m1492 -173 c9 -27 15 -62 12 -77 -4 -27 -4
-27 -6 4 0 18 -10 55 -21 83 -11 28 -16 49 -11 46 5 -4 17 -29 26 -56z m12
-172 c-3 -8 -6 -5 -6 6 -1 11 2 17 5 13 3 -3 4 -12 1 -19z m-6650 -736 c-1
-53 -3 -7 -3 103 0 110 2 154 3 97 2 -57 2 -147 0 -200z m5493 68 c13 -8 13
-10 -2 -10 -9 0 -20 5 -23 10 -8 13 5 13 25 0z m248 -2 c-18 -6 -55 -6 -105 0
l-78 9 105 1 c81 0 99 -2 78 -10z m92 8 c0 -2 -9 -6 -20 -9 -11 -3 -20 -1 -20
4 0 5 9 9 20 9 11 0 20 -2 20 -4z m77 -2 c-3 -3 -12 -4 -19 -1 -8 3 -5 6 6 6
11 1 17 -2 13 -5z m-859 -11 c-10 -2 -26 -2 -35 0 -10 3 -2 5 17 5 19 0 27 -2
18 -5z m139 1 c-3 -3 -12 -4 -19 -1 -8 3 -5 6 6 6 11 1 17 -2 13 -5z m76 -1
c-7 -2 -21 -2 -30 0 -10 3 -4 5 12 5 17 0 24 -2 18 -5z m-4193 -14 c127 6 300
4 300 -3 0 -5 32 -6 73 -3 39 3 92 2 117 -3 42 -7 -254 -15 -410 -11 -43 1
-52 -1 -40 -10 12 -9 11 -10 -5 -4 -11 3 -99 5 -195 4 -96 -2 -195 -2 -220 -1
-25 1 -59 -3 -76 -9 -35 -11 -99 -75 -114 -113 -5 -15 -7 -122 -4 -258 7 -271
8 -409 4 -493 -2 -33 1 -116 5 -185 6 -98 5 -131 -6 -150 -8 -16 -15 -72 -17
-149 -5 -133 -22 -150 -22 -21 0 46 -5 81 -12 88 -9 9 -9 12 0 12 8 0 12 25
12 81 0 51 -4 78 -10 74 -5 -3 -10 -1 -10 4 0 6 5 11 11 11 8 0 9 39 4 143
-11 203 -12 267 -3 267 12 0 10 118 -2 125 -5 3 -10 32 -9 63 1 43 3 51 9 32
4 -14 7 56 6 155 -1 167 1 183 21 225 31 62 91 124 129 132 10 2 114 2 229 0
116 -2 221 -4 235 -3z m1620 2 c0 -5 147 -7 346 -5 191 2 344 1 341 -3 -4 -3
-50 -7 -104 -9 -54 -1 -177 -6 -273 -9 -96 -4 -260 -7 -365 -7 -170 0 -183 -1
-125 -11 36 -6 127 -11 203 -10 112 0 137 -3 133 -14 -4 -10 8 -13 54 -13 33
0 60 4 60 9 0 6 14 6 35 0 46 -13 318 -4 323 10 6 17 32 13 32 -5 0 -13 10
-15 63 -10 34 3 553 8 1152 11 600 3 1178 8 1286 11 167 5 202 3 235 -11 82
-34 103 -73 108 -198 15 -391 17 -501 7 -487 -8 11 -10 -4 -10 -60 1 -56 3
-67 9 -45 7 26 8 24 9 -20 0 -36 -2 -46 -9 -35 -7 10 -9 -5 -9 -50 1 -48 3
-58 9 -40 5 14 8 -49 7 -150 0 -115 -3 -154 -7 -115 -5 50 -7 39 -8 -59 -1
-73 2 -116 7 -110 5 5 11 18 14 29 2 11 3 4 1 -15 -2 -19 -5 -80 -6 -135 l-2
-100 -6 100 c-4 70 -7 22 -8 -162 -1 -170 2 -263 8 -263 6 0 9 -23 9 -52 l-2
-53 -7 40 c-7 37 -7 35 -9 -22 0 -34 4 -65 9 -68 6 -3 10 -18 9 -33 l-1 -27
-8 25 c-5 17 -8 -5 -9 -65 0 -49 4 -97 9 -105 7 -10 10 6 10 54 0 64 1 68 15
50 15 -19 15 -19 35 5 l20 23 -1 -223 c-2 -168 -4 -203 -9 -142 -5 55 -13 87
-24 98 -10 11 -16 33 -16 66 0 31 -4 48 -10 44 -6 -3 -9 -36 -8 -73 1 -37 0
-116 -4 -177 -4 -60 -2 -244 4 -409 7 -229 7 -300 -2 -306 -9 -6 -10 -53 -5
-191 4 -101 9 -210 12 -241 l5 -58 -149 -1 c-296 -3 -510 -6 -623 -8 -63 -2
-127 0 -142 4 -16 4 -28 3 -28 -2 0 -4 -38 -8 -84 -8 -46 0 -79 3 -73 7 23 15
-100 8 -163 -9 -56 -16 -78 -17 -160 -7 -52 5 -99 8 -103 6 -16 -8 -287 -7
-287 1 0 4 -9 3 -19 -3 -20 -10 -303 -15 -313 -5 -3 3 0 31 7 63 29 129 26
165 -12 143 -16 -9 -19 -2 -28 57 -9 59 -13 67 -32 68 -13 1 -23 -4 -24 -10 0
-6 0 -82 1 -168 l1 -158 -28 0 c-39 0 -55 13 -55 45 0 19 -7 29 -19 32 -11 3
-19 13 -19 23 0 10 -3 25 -6 34 -3 9 -1 16 5 16 6 0 11 -13 11 -30 0 -30 14
-41 23 -17 3 6 6 2 6 -10 1 -13 6 -23 11 -23 16 0 28 39 31 105 5 77 -17 82
-42 10 -13 -37 -18 -43 -18 -25 -1 20 -3 22 -11 10 -6 -10 -10 -11 -10 -2 0 6
-5 12 -11 12 -7 0 -10 -32 -7 -99 3 -79 2 -98 -9 -94 -7 3 -13 0 -13 -7 0 -6
4 -9 9 -6 5 3 14 -1 21 -9 10 -12 9 -20 -5 -41 -9 -14 -15 -35 -12 -45 3 -10
1 -17 -4 -13 -5 3 -9 13 -9 22 0 31 -35 172 -42 172 -5 0 -6 -26 -3 -57 3 -42
2 -51 -4 -33 -7 17 -9 -13 -9 -97 0 -68 4 -123 9 -123 5 0 10 -24 10 -52 1
-29 3 -45 6 -36 3 14 7 15 17 5 8 -6 11 -19 9 -27 -4 -12 -3 -12 5 -1 5 7 10
31 10 53 1 69 12 55 14 -18 2 -106 0 -176 -7 -182 -5 -5 -9 63 -5 106 1 16 -4
22 -18 22 -11 0 -22 6 -25 13 -3 6 -4 2 -4 -10 1 -12 7 -25 14 -27 7 -3 13
-19 13 -36 0 -17 -4 -29 -9 -26 -5 3 -12 -5 -15 -19 -8 -31 -63 -95 -82 -95
-8 0 -14 -5 -14 -12 0 -6 -3 -8 -7 -5 -3 4 -12 2 -20 -5 -10 -8 -31 -8 -84 2
-46 9 -77 10 -87 4 -10 -5 -95 -9 -189 -9 -95 0 -173 -3 -173 -7 0 -5 -7 -8
-15 -8 -9 0 -12 -6 -8 -15 3 -10 0 -15 -8 -13 -8 2 -13 -3 -12 -9 4 -16 -13
-17 -22 -2 -4 6 -13 8 -21 5 -8 -3 -11 0 -7 10 4 11 -4 14 -35 14 -103 0 -184
87 -186 201 0 32 -4 61 -8 65 -5 4 -8 17 -7 28 0 20 1 20 8 2 12 -32 17 -5 10
64 -3 36 -6 60 -7 55 -1 -6 -17 -9 -37 -7 -30 4 -35 8 -35 30 0 22 2 24 13 10
18 -23 47 -30 47 -13 0 8 5 15 10 15 6 0 10 7 10 16 0 9 -5 12 -11 8 -9 -5
-10 9 -5 54 5 41 3 63 -4 67 -7 4 -9 18 -5 34 4 14 9 69 11 122 4 80 2 98 -11
103 -10 3 -15 19 -15 46 0 38 -2 40 -29 40 -23 0 -28 4 -24 18 11 43 -75 55
-131 18 -23 -14 -23 -17 -11 -53 13 -37 13 -38 -11 -41 -22 -3 -24 -6 -18 -45
3 -23 10 -58 15 -77 6 -23 5 -36 -3 -41 -7 -5 -8 -22 -4 -50 8 -52 0 -58 -62
-48 -26 4 -60 5 -77 2 -23 -4 -27 -2 -15 6 8 6 10 11 4 11 -6 0 -26 3 -44 7
-28 5 -32 4 -27 -10 5 -13 0 -17 -21 -17 -22 0 -24 2 -12 11 11 8 12 12 2 16
-6 2 -10 8 -8 12 4 6 -150 5 -637 -2 -86 -1 -158 1 -160 6 -1 4 -97 3 -212 -2
-116 -5 -295 -7 -400 -6 -104 2 -230 3 -278 4 l-88 1 0 138 c0 75 0 166 -1
202 0 35 4 66 8 67 5 2 9 289 9 643 0 351 3 632 7 622 4 -9 8 46 9 123 0 77 1
169 2 205 1 36 -2 79 -6 95 -6 22 -5 26 3 15 8 -11 10 52 8 223 -2 187 -6 240
-17 246 -10 6 -11 21 -6 57 11 72 13 878 3 885 -5 3 -4 35 3 74 13 75 43 115
85 115 13 0 24 5 24 11 0 5 3 8 8 5 4 -2 315 -6 691 -9 534 -4 691 -2 714 8
20 8 25 14 16 18 -10 4 -9 6 4 6 9 1 17 -3 17 -9 0 -15 82 -12 102 4 10 7 15
16 11 20 -3 3 16 3 43 -1 54 -7 59 -8 124 -4 l45 2 -32 14 c-36 15 -186 19
-212 5 -9 -5 -25 -12 -36 -15 l-20 -7 20 -8 c11 -5 15 -9 8 -9 -20 -1 -59 16
-78 36 -17 16 -41 18 -227 21 -114 2 -206 8 -203 12 3 5 221 8 485 7 264 -1
480 1 480 6 0 4 14 7 30 7 17 0 30 -4 30 -9z m3475 -9 c-3 -3 -11 0 -18 7 -9
10 -8 11 6 5 10 -3 15 -9 12 -12z m-908 -18 c-3 -3 -12 -4 -19 -1 -8 3 -5 6 6
6 11 1 17 -2 13 -5z m-4767 -58 c0 -2 -8 -10 -17 -17 -16 -13 -17 -12 -4 4 13
16 21 21 21 13z m-503 -108 c-3 -8 -6 -5 -6 6 -1 11 2 17 5 13 3 -3 4 -12 1
-19z m10 -95 c-2 -16 -4 -3 -4 27 0 30 2 43 4 28 2 -16 2 -40 0 -55z m4 -95
c1 -35 0 -67 -1 -73 -1 -5 -1 -244 0 -530 1 -286 3 -913 5 -1393 l3 -873 31
-64 c20 -40 48 -77 74 -99 39 -31 118 -66 152 -66 8 0 15 -9 15 -20 0 -26 -24
-26 -97 2 -32 13 -63 23 -69 23 -19 0 -109 117 -132 171 -11 27 -21 66 -20 85
0 18 -1 104 -2 189 -2 198 -2 199 10 180 7 -11 10 -5 10 23 0 20 -4 37 -9 37
-5 0 -7 181 -5 433 2 237 5 753 8 1145 3 392 8 717 11 723 4 5 4 45 1 89 -3
48 -1 80 4 80 6 0 11 -28 11 -62z m-74 -555 c-3 -10 -5 -4 -5 12 0 17 2 24 5
18 2 -7 2 -21 0 -30z m640 -645 c-3 -8 -6 -5 -6 6 -1 11 2 17 5 13 3 -3 4 -12
1 -19z m-90 -105 c-2 -21 -4 -6 -4 32 0 39 2 55 4 38 2 -18 2 -50 0 -70z
m-546 64 c-10 -9 -11 -8 -5 6 3 10 9 15 12 12 3 -3 0 -11 -7 -18z m7 -152 l0
-30 -8 30 c-4 17 -8 41 -8 55 l0 25 8 -25 c4 -14 8 -38 8 -55z m542 -656 c1
-358 -1 -653 -4 -657 -3 -3 -6 6 -6 19 0 13 -1 317 -3 676 -1 358 1 643 5 632
4 -10 8 -312 8 -670z m-540 559 c0 -21 -3 -29 -10 -22 -5 5 -7 19 -4 32 9 31
14 27 14 -10z m6267 -65 c-3 -10 -5 -2 -5 17 0 19 2 27 5 18 2 -10 2 -26 0
-35z m-6277 7 c0 -5 -2 -10 -4 -10 -3 0 -8 5 -11 10 -3 6 -1 10 4 10 6 0 11
-4 11 -10z m10 -57 c0 -10 3 -28 6 -40 4 -14 2 -23 -5 -23 -6 0 -11 9 -11 20
0 11 -4 20 -9 20 -5 0 -7 9 -4 20 7 25 23 26 23 3z m6 -115 c-3 -13 -6 -30 -7
-38 0 -10 -3 -8 -9 5 -14 32 -11 55 6 55 12 0 15 -6 10 -22z m6831 -80 c-3 -8
-6 -5 -6 6 -1 11 2 17 5 13 3 -3 4 -12 1 -19z m-6830 -50 c-2 -13 -4 -3 -4 22
0 25 2 35 4 23 2 -13 2 -33 0 -45z m-17 -118 c0 -5 -2 -10 -4 -10 -3 0 -8 5
-11 10 -3 6 -1 10 4 10 6 0 11 -4 11 -10z m4 -191 c-6 -37 -34 -51 -34 -17 0
11 4 16 10 13 5 -3 12 6 16 20 9 37 14 26 8 -16z m-47 -81 c-3 -8 -6 -5 -6 6
-1 11 2 17 5 13 3 -3 4 -12 1 -19z m6900 -20 c-3 -8 -6 -5 -6 6 -1 11 2 17 5
13 3 -3 4 -12 1 -19z m-510 -70 c-3 -8 -6 -5 -6 6 -1 11 2 17 5 13 3 -3 4 -12
1 -19z m0 -100 c-3 -8 -6 -5 -6 6 -1 11 2 17 5 13 3 -3 4 -12 1 -19z m359
-428 l-15 -35 5 55 c7 72 17 95 22 50 1 -20 -4 -51 -12 -70z m-6159 3 c-2 -16
-4 -5 -4 22 0 28 2 40 4 28 2 -13 2 -35 0 -50z m1 -165 l-1 -113 -7 100 c-6
91 -5 125 6 125 2 0 3 -51 2 -112z m6017 -18 c-10 -16 -65 -42 -65 -30 0 5 15
16 33 24 41 18 39 18 32 6z m-6179 -86 c4 -15 2 -30 -5 -37 -9 -9 -11 -8 -6 5
4 9 2 26 -5 37 -7 14 -7 21 -1 21 6 0 14 -12 17 -26z m64 11 c0 -8 -9 -15 -20
-15 -11 0 -20 7 -20 15 0 8 9 15 20 15 11 0 20 -7 20 -15z m-12 -56 c12 0 9
-3 -7 -10 -29 -12 -32 -9 -24 21 6 19 8 21 11 8 2 -10 11 -18 20 -19z m-48
-39 c0 -5 -4 -10 -9 -10 -6 0 -13 5 -16 10 -3 6 1 10 9 10 9 0 16 -4 16 -10z
m53 3 c-7 -2 -21 -2 -30 0 -10 3 -4 5 12 5 17 0 24 -2 18 -5z m7 -128 c0 -98
-1 -105 -20 -105 -18 0 -20 7 -20 59 0 32 -3 79 -6 105 -7 45 -6 46 20 46 l26
0 0 -105z m-63 -47 c-2 -13 -4 -5 -4 17 -1 22 1 32 4 23 2 -10 2 -28 0 -40z
m6199 -213 c18 -13 18 -14 -4 -8 -12 3 -25 9 -28 14 -8 14 10 11 32 -6z m85
-62 c13 -16 12 -17 -3 -4 -10 7 -18 15 -18 17 0 8 8 3 21 -13z m-2787 -109 c3
-8 2 -12 -4 -9 -6 3 -10 10 -10 16 0 14 7 11 14 -7z m-1030 -270 c3 -8 2 -12
-4 -9 -6 3 -10 10 -10 16 0 14 7 11 14 -7z m951 -94 c-3 -5 -11 -10 -16 -10
-6 0 -7 5 -4 10 3 6 11 10 16 10 6 0 7 -4 4 -10z m-566 -30 c11 0 21 -5 21
-11 0 -6 -36 -9 -102 -8 -101 2 -102 3 -68 17 19 8 52 14 74 13 29 -2 37 0 31
11 -3 7 0 5 8 -4 8 -10 24 -18 36 -18z m299 22 c9 9 15 7 25 -6 12 -16 24 -18
93 -14 43 3 88 9 99 13 16 6 18 5 8 -5 -12 -13 -160 -31 -257 -32 -31 0 -44
-3 -35 -9 8 -5 9 -9 3 -9 -6 0 -14 3 -18 8 -4 4 -38 8 -74 9 -126 3 -145 19
-35 28 43 3 94 10 113 14 19 4 42 4 51 0 9 -5 21 -3 27 3z m-3441 -514 c-2
-18 -4 -4 -4 32 0 36 2 50 4 33 2 -18 2 -48 0 -65z m3911 15 c-10 -2 -26 -2
-35 0 -10 3 -2 5 17 5 19 0 27 -2 18 -5z m-1356 -26 c79 -6 43 -14 -89 -22
-76 -4 -147 -7 -158 -7 -50 3 -145 -52 -145 -83 0 -17 -24 -65 -33 -65 -4 0
-3 -9 3 -19 15 -28 12 -67 -5 -81 -8 -7 -15 -29 -15 -48 0 -24 -3 -33 -10 -26
-5 5 -11 56 -13 112 -2 81 0 105 11 111 8 5 16 21 17 36 2 15 9 33 15 39 8 8
10 6 5 -9 -6 -17 -3 -16 15 5 12 14 45 34 74 46 44 18 67 20 171 17 66 -2 137
-5 157 -6z m552 1 c71 4 70 -8 -1 -15 -26 -2 -64 -6 -83 -9 -19 -3 -62 -5 -95
-4 l-60 0 30 -15 c16 -9 45 -15 65 -14 23 2 34 -1 33 -9 -2 -7 6 -12 17 -12
11 0 20 5 20 11 0 8 4 8 13 0 8 -6 41 -9 83 -6 38 2 204 7 369 10 321 5 538
12 703 21 62 3 102 2 102 -4 0 -5 11 -12 25 -14 14 -3 25 -1 25 3 0 10 49 -10
66 -26 6 -6 17 -21 23 -34 11 -19 11 -22 0 -16 -9 6 -10 3 -4 -11 5 -10 10
-58 13 -106 2 -49 7 -86 12 -83 4 2 6 17 4 32 -2 16 -1 20 2 11 4 -12 16 -18
35 -18 28 0 29 -1 29 -49 0 -27 2 -58 5 -68 3 -10 -1 -4 -9 13 -8 17 -22 34
-31 38 -9 3 -13 10 -10 16 3 5 2 10 -4 10 -5 0 -9 -13 -9 -30 1 -16 -5 -37
-12 -45 -12 -14 -11 -18 1 -26 10 -6 10 -9 2 -9 -14 0 -18 -26 -4 -32 4 -1 11
-39 14 -83 l5 -80 -19 49 c-10 28 -17 52 -14 54 2 3 0 13 -6 24 -6 11 -13 17
-16 14 -11 -11 -54 54 -49 72 9 29 -21 49 -129 89 -36 13 -77 18 -145 18 -176
-1 -390 -10 -390 -17 0 -3 -14 -1 -30 5 -25 9 -33 9 -39 -1 -9 -16 -258 -25
-267 -11 -3 5 -13 5 -22 0 -21 -10 -247 -9 -258 2 -4 4 3 7 15 7 12 0 19 4 16
10 -9 14 -34 12 -50 -3 -14 -15 -9 -30 15 -40 8 -4 -3 -4 -25 -1 -33 4 -59 17
-85 44 -3 3 -49 3 -103 0 -53 -3 -98 -2 -100 2 -1 3 -22 3 -47 -1 -49 -8 -206
-5 -257 5 -39 7 -155 -11 -194 -31 -15 -8 -30 -23 -33 -32 -3 -10 -14 -23 -23
-29 -17 -10 -18 -6 -15 61 3 58 0 76 -14 89 -12 13 -14 20 -5 29 6 6 11 22 11
34 0 38 28 81 62 99 28 15 61 16 255 12 123 -3 226 -2 229 3 3 5 22 9 42 10
20 0 31 3 25 6 -7 2 -13 12 -13 20 0 10 -6 14 -18 11 -12 -3 -24 2 -31 13 -9
15 -23 19 -71 19 -33 0 -60 4 -60 9 0 5 68 9 152 10 83 1 153 3 155 4 1 2 28
0 59 -3 32 -4 85 -5 118 -2z m1233 -44 c-3 -3 -12 -4 -19 -1 -8 3 -5 6 6 6 11
1 17 -2 13 -5z m-4350 -46 c-3 -8 -6 -5 -6 6 -1 11 2 17 5 13 3 -3 4 -12 1
-19z m13 -184 c3 -36 2 -70 -2 -77 -4 -7 -8 3 -9 23 -3 65 -8 114 -14 129 -5
13 -4 14 7 3 7 -7 15 -42 18 -78z m4467 24 c-2 -13 -4 -3 -4 22 0 25 2 35 4
23 2 -13 2 -33 0 -45z m-2358 -260 c1 -72 -1 -129 -4 -126 -3 3 -6 50 -6 104
0 137 0 154 5 154 2 0 5 -59 5 -132z m1908 36 c-3 -3 -12 -4 -19 -1 -8 3 -5 6
6 6 11 1 17 -2 13 -5z m-370 -10 c-3 -3 -12 -4 -19 -1 -8 3 -5 6 6 6 11 1 17
-2 13 -5z m-102 -15 c-22 -4 -49 -8 -60 -8 -17 -1 -17 1 -5 9 8 5 35 9 60 9
l45 -1 -40 -9z m625 -11 c11 -7 8 -8 -12 -5 -20 3 -31 -2 -42 -19 -14 -20 -14
-23 2 -30 9 -4 22 -8 27 -8 22 -3 75 -37 75 -49 0 -7 7 -22 16 -33 14 -18 15
-18 4 4 -6 12 -8 22 -6 22 3 0 12 -12 19 -27 19 -39 12 -261 -10 -322 -12 -35
-13 -46 -4 -49 16 -5 -37 -62 -57 -62 -11 0 -13 -9 -9 -35 5 -33 4 -35 -22
-35 -29 0 -71 -32 -71 -55 0 -42 55 -95 98 -95 19 0 81 39 141 88 23 19 41 29
41 24 0 -22 32 -21 51 0 10 13 18 26 19 30 0 4 9 22 21 40 l21 33 -5 -163 c-5
-135 -3 -165 10 -177 21 -21 8 -68 -29 -111 -22 -25 -29 -41 -25 -60 3 -20 -2
-28 -27 -42 -27 -14 -70 -17 -303 -20 -154 -2 -286 1 -305 7 -32 9 -32 9 -5
10 15 1 27 6 27 11 0 6 -16 10 -35 8 -23 -1 -34 -6 -31 -14 6 -16 -19 -20 -79
-13 l-50 6 47 1 c26 1 50 7 53 12 4 6 -26 10 -84 10 -49 0 -93 -4 -96 -10 -6
-10 18 -14 60 -11 18 1 18 0 3 -9 -20 -12 -78 -2 -78 15 0 13 -59 13 -81 0 -7
-5 -14 -4 -17 3 -5 17 -22 15 -45 -5 -11 -10 -17 -13 -14 -6 11 17 -4 22 -33
11 -24 -10 -24 -11 -5 -18 19 -8 19 -9 -1 -9 -13 -1 -24 6 -26 17 -7 25 -54
23 -50 -2 3 -17 -14 -23 -20 -6 -2 6 -23 12 -46 14 -24 3 -49 9 -55 15 -7 5
-28 11 -47 14 -27 3 -23 4 17 5 29 1 96 6 150 12 54 5 133 12 176 16 105 8 98
24 -8 19 -50 -2 -85 0 -85 6 0 6 -116 8 -302 5 -305 -5 -388 -11 -388 -27 0
-5 -5 -9 -11 -9 -5 0 -7 5 -4 10 4 6 -25 10 -81 10 -48 0 -84 -3 -80 -7 3 -4
28 -6 54 -5 33 1 41 -1 27 -7 -11 -5 -24 -6 -28 -4 -12 7 -57 -18 -51 -29 6
-9 -11 -11 -66 -8 -19 0 -46 -3 -59 -8 -25 -9 -53 -3 -119 24 -41 18 -45 17
-39 0 4 -10 1 -13 -8 -9 -8 3 -12 10 -9 15 4 5 -4 24 -16 41 l-23 32 29 -25
c24 -22 94 -60 109 -60 2 0 2 7 -1 15 -4 8 -14 15 -24 15 -10 0 -23 7 -30 15
-7 8 -9 15 -4 15 4 0 -1 10 -12 23 -42 47 -45 79 -29 311 l7 107 59 -58 c33
-32 64 -59 69 -61 14 -5 12 -30 -2 -35 -26 -8 13 -36 66 -48 70 -15 92 -7 41
16 -22 9 -34 19 -27 22 7 3 24 -2 37 -11 28 -18 39 -20 30 -6 -3 6 3 10 13 10
11 0 25 7 32 15 9 11 15 12 20 5 4 -6 30 -11 58 -12 29 0 49 -4 46 -9 -3 -5
-10 -7 -15 -4 -5 4 -9 1 -9 -4 0 -6 19 -11 43 -12 34 -1 37 -2 17 -8 l-25 -7
23 -8 c12 -4 138 -4 280 0 274 8 415 7 472 -1 19 -3 69 -10 110 -15 41 -6 104
-15 140 -20 100 -14 177 -13 183 4 3 8 1 17 -6 19 -24 9 1 16 78 23 100 9 125
17 119 41 -5 17 -31 18 -490 18 -266 0 -484 3 -484 8 0 11 -48 8 -52 -4 -3 -8
-17 -7 -48 2 -29 8 -110 13 -232 13 -102 1 -189 4 -193 8 -4 4 -14 0 -23 -9
-14 -14 -17 -13 -34 7 -9 12 -22 19 -27 15 -15 -8 -76 20 -132 60 -49 36 -87
87 -94 125 -8 40 -16 60 -24 56 -4 -3 -7 50 -8 117 l-1 122 8 -90 c8 -94 10
-102 42 -175 35 -79 127 -160 211 -184 61 -17 515 -28 682 -16 55 4 152 11
215 15 63 4 117 9 119 11 2 2 -2 10 -9 19 -10 12 -10 15 4 15 10 0 16 -8 16
-21 0 -20 3 -21 56 -14 47 6 58 4 69 -11 9 -13 33 -20 86 -25 125 -13 189 -11
189 5 0 17 -14 22 -89 31 -52 7 -54 8 -30 21 23 13 24 13 2 14 -12 0 -25 -5
-28 -10 -4 -6 -13 -7 -23 -1 -9 4 -23 6 -29 4 -7 -3 -13 0 -13 6 0 5 12 12 28
14 15 2 1 5 -31 6 -38 0 -56 -3 -52 -9 4 -6 16 -8 28 -4 19 6 20 5 8 -10 -12
-14 -10 -16 20 -17 28 0 31 -2 14 -9 -34 -15 -75 -12 -69 5 3 8 0 20 -8 27
-16 16 -98 19 -98 4 0 -7 -3 -7 -8 -1 -10 13 -82 14 -81 1 3 -26 -2 -36 -18
-36 -15 0 -16 2 -3 10 13 9 13 11 0 20 -8 5 -23 10 -32 10 -9 0 -20 5 -23 11
-4 6 -17 14 -29 19 -16 7 -10 9 29 11 28 1 59 3 70 5 11 1 51 8 89 14 39 6 72
13 75 16 8 8 -158 -4 -171 -12 -7 -4 -8 -2 -4 4 4 7 18 12 31 12 13 0 26 3 28
8 3 4 -71 5 -164 2 -94 -3 -178 -2 -187 1 -9 4 -20 2 -24 -4 -3 -6 -17 -11
-30 -12 -12 -1 -22 -8 -21 -14 2 -6 -8 -11 -21 -11 -14 0 -28 -5 -32 -11 -4
-8 3 -9 26 -4 24 5 31 4 25 -5 -4 -7 -1 -11 6 -9 23 3 39 -1 39 -8 0 -5 -81
-7 -181 -6 -159 2 -179 1 -169 -13 11 -12 10 -13 -4 -8 -9 3 -16 10 -16 15 0
5 -39 10 -87 11 l-88 1 115 7 c63 4 121 5 129 2 9 -3 12 -1 7 6 -4 7 -22 12
-41 12 -18 0 -35 4 -37 10 -1 5 -34 12 -71 14 -95 8 -136 20 -180 57 -55 45
-80 108 -74 183 5 58 12 102 23 138 3 9 0 19 -6 23 -6 4 0 15 17 28 26 21 38
22 200 22 95 -1 173 3 173 7 0 4 10 9 23 9 20 2 20 2 -3 7 -23 4 -24 5 -5 13
17 6 17 8 3 8 -10 1 -18 8 -18 16 0 23 -43 28 -164 21 -212 -14 -231 -18 -240
-42 -3 -8 -13 -14 -21 -14 -12 0 -15 -6 -10 -19 4 -15 0 -20 -17 -23 -23 -3
-23 -5 -23 -143 0 -118 3 -146 19 -180 11 -22 22 -44 24 -49 13 -26 -19 9 -33
37 -25 49 -27 62 -32 205 -3 109 -1 142 13 178 11 30 23 44 35 44 11 0 19 6
19 14 0 8 7 17 16 20 10 4 13 2 8 -6 -5 -8 -2 -9 12 -4 25 11 165 13 171 3 2
-4 12 -3 22 3 10 5 21 6 25 2 11 -11 286 -8 287 3 0 6 3 5 5 -1 3 -8 29 -11
76 -8 45 2 68 0 62 -6 -5 -5 -21 -11 -34 -14 -14 -2 -27 -5 -30 -6 -3 -1 -12
-2 -22 -1 -9 1 -19 -2 -22 -8 -4 -6 -18 -6 -37 -1 -26 8 -29 7 -19 -5 7 -8 29
-15 49 -15 24 0 31 -3 22 -9 -9 -6 2 -9 30 -9 24 -1 49 4 56 10 7 6 13 6 13 1
0 -5 15 -8 33 -7 39 3 420 16 532 19 44 1 96 5 115 9 19 4 107 8 195 9 l160 2
0 33 c0 33 0 33 40 26 22 -3 47 -11 55 -16z m-773 6 c-3 -3 -12 -4 -19 -1 -8
3 -5 6 6 6 11 1 17 -2 13 -5z m40 0 c-3 -3 -12 -4 -19 -1 -8 3 -5 6 6 6 11 1
17 -2 13 -5z m-1236 -91 c-12 -20 -14 -14 -5 12 4 9 9 14 11 11 3 -2 0 -13 -6
-23z m-14 -120 c-3 -10 -5 -4 -5 12 0 17 2 24 5 18 2 -7 2 -21 0 -30z m-2260
-85 c-3 -7 -5 -2 -5 12 0 14 2 19 5 13 2 -7 2 -19 0 -25z m2182 -150 c-1 -40
-1 -41 -9 -15 -8 26 -4 57 6 57 2 0 4 -19 3 -42z m131 -174 c0 -2 -7 -4 -15
-4 -8 0 -15 4 -15 10 0 5 7 7 15 4 8 -4 15 -8 15 -10z m1037 10 c-8 -8 -136
-8 -144 0 -4 3 29 6 72 6 43 0 76 -3 72 -6z m-587 -28 c0 -2 -7 -7 -16 -10 -8
-3 -12 -2 -9 4 6 10 25 14 25 6z m880 -16 c0 -13 -11 -13 -30 0 -12 8 -11 10
8 10 12 0 22 -4 22 -10z m-1110 -113 c0 -5 -7 -6 -16 -3 -9 3 -23 6 -32 7 -11
0 -12 2 -4 6 6 2 10 9 6 14 -3 5 6 4 20 -3 14 -6 26 -15 26 -21z m235 -10 c21
-3 16 -4 -18 -6 -40 -1 -46 1 -35 13 7 8 15 10 18 6 3 -5 19 -10 35 -13z m72
-3 c-3 -3 -12 -4 -19 -1 -8 3 -5 6 6 6 11 1 17 -2 13 -5z m-670 -141 c-3 -10
-5 -2 -5 17 0 19 2 27 5 18 2 -10 2 -26 0 -35z m-2162 -32 c-8 -14 -25 -14
-25 0 0 5 5 7 10 4 6 -3 10 -1 10 6 0 7 3 10 6 6 3 -3 3 -10 -1 -16z m2189
-57 c3 -8 2 -12 -4 -9 -6 3 -10 10 -10 16 0 14 7 11 14 -7z m-2185 -93 c1 -48
-5 -36 -13 24 -4 34 -3 43 3 30 5 -11 10 -35 10 -54z m3334 42 c-7 -2 -21 -2
-30 0 -10 3 -4 5 12 5 17 0 24 -2 18 -5z m44 1 c-3 -3 -12 -4 -19 -1 -8 3 -5
6 6 6 11 1 17 -2 13 -5z m-712 -24 c-3 -5 -14 -10 -23 -10 -15 0 -15 2 -2 10
20 13 33 13 25 0z m57 -29 c11 6 19 6 23 -1 3 -5 -2 -10 -12 -11 -120 -4 -193
-3 -193 4 0 9 10 10 83 8 44 -1 56 2 51 11 -4 7 1 5 12 -4 13 -12 24 -14 36
-7z m415 -43 c-3 -8 -6 -5 -6 6 -1 11 2 17 5 13 3 -3 4 -12 1 -19z m408 -6
c-3 -3 -11 0 -18 7 -9 10 -8 11 6 5 10 -3 15 -9 12 -12z m-3554 -55 c-13 -13
-15 11 -4 40 7 16 8 15 11 -6 2 -13 -1 -28 -7 -34z m-4 -39 c-3 -8 -6 -5 -6 6
-1 11 2 17 5 13 3 -3 4 -12 1 -19z m15 -65 c6 -8 6 -18 -1 -30 -9 -16 -10 -16
-11 5 0 12 -4 22 -9 22 -4 0 -6 12 -3 28 5 22 7 23 10 7 2 -11 9 -25 14 -32z
m4 -90 c-3 -8 -6 -22 -6 -31 0 -15 -2 -15 -10 -2 -16 25 -12 60 6 53 8 -3 13
-12 10 -20z m1 -135 c-2 -13 -4 -3 -4 22 0 25 2 35 4 23 2 -13 2 -33 0 -45z
m-22 -98 c3 -5 1 -10 -4 -10 -6 0 -11 5 -11 10 0 6 2 10 4 10 3 0 8 -4 11 -10z
m22 -112 c-2 -18 -4 -6 -4 27 0 33 2 48 4 33 2 -15 2 -42 0 -60z m-15 -82 c-3
-25 -8 -33 -18 -29 -8 3 -14 12 -14 20 0 8 4 12 9 9 5 -3 11 3 14 14 8 32 13
23 9 -14z m-12 -61 c0 -8 -4 -15 -10 -15 -5 0 -10 7 -10 15 0 8 5 15 10 15 6
0 10 -7 10 -15z m29 -102 c0 -25 -1 -25 -8 -8 -5 11 -7 23 -4 28 8 14 13 7 12
-20z m6687 -214 l-15 -34 5 45 c8 61 17 82 21 49 2 -15 -3 -42 -11 -60z
m-3401 -209 c4 -6 -7 -10 -27 -10 -25 0 -29 3 -18 10 19 13 37 13 45 0z m233
-1 c-5 -3 3 -9 19 -12 17 -3 34 0 43 8 11 10 35 13 80 10 202 -12 263 -13 245
-5 -16 7 -13 9 18 9 23 1 36 -3 32 -9 -3 -5 3 -10 15 -10 27 0 68 -27 82 -54
10 -20 10 -20 -7 -6 -17 14 -17 13 -8 -5 11 -20 8 -20 -860 -17 -811 2 -873 4
-885 20 -8 11 -9 18 -2 20 5 2 8 7 6 10 -2 4 62 7 142 7 81 0 305 4 497 9 193
4 375 8 405 8 33 1 42 2 23 5 -65 9 -31 18 66 18 55 0 95 -2 89 -6z m1333 -2
c-5 -5 -100 -10 -210 -11 -111 0 -201 -4 -201 -7 0 -11 115 -19 265 -20 157
-1 185 -5 185 -25 0 -8 10 -14 25 -14 14 0 25 -4 25 -9 0 -4 -82 -7 -182 -5
-101 2 -232 4 -291 4 -60 0 -106 4 -103 9 3 4 -6 13 -20 20 -14 6 -22 16 -19
22 4 6 -2 13 -14 16 -12 3 -21 10 -21 15 0 7 21 8 58 4 31 -4 52 -3 45 1 -7 5
96 9 227 9 143 0 236 -4 231 -9z m-3698 -4 c-7 -2 -19 -2 -25 0 -7 3 -2 5 12
5 14 0 19 -2 13 -5z m1587 -3 c0 -5 -7 -10 -16 -10 -8 0 -12 5 -9 10 3 6 10
10 16 10 5 0 9 -4 9 -10z m-1443 -6 c-3 -3 -12 -4 -19 -1 -8 3 -5 6 6 6 11 1
17 -2 13 -5z m-1122 -52 c-3 -3 -11 0 -18 7 -9 10 -8 11 6 5 10 -3 15 -9 12
-12z m3955 9 c0 -5 -10 -11 -22 -14 -22 -6 -22 -6 -4 8 23 17 26 18 26 6z
m-2943 -27 c-3 -3 -12 -4 -19 -1 -8 3 -5 6 6 6 11 1 17 -2 13 -5z m353 -24
c12 -8 11 -10 -7 -10 -13 0 -23 5 -23 10 0 13 11 13 30 0z m-167 -7 c-45 -2
-122 -2 -170 0 -48 1 -11 3 82 3 94 0 133 -2 88 -3z m4494 1 c-3 -3 -12 -4
-19 -1 -8 3 -5 6 6 6 11 1 17 -2 13 -5z m-652 -39 c-25 -8 -115 -11 -115 -4 0
5 28 9 63 8 34 0 58 -2 52 -4z m92 -21 c-3 -3 -12 -4 -19 -1 -8 3 -5 6 6 6 11
1 17 -2 13 -5z"/>
<path d="M4380 8920 c-11 -7 -7 -10 18 -10 20 0 31 4 27 10 -8 13 -26 13 -45
0z"/>
<path d="M4470 8920 c-12 -8 -9 -10 12 -10 15 0 30 5 33 10 8 13 -25 13 -45 0z"/>
<path d="M4595 8919 c55 -11 75 -11 75 1 0 6 -25 9 -57 9 -57 -1 -58 -1 -18
-10z"/>
<path d="M4213 8913 c9 -2 25 -2 35 0 9 3 1 5 -18 5 -19 0 -27 -2 -17 -5z"/>
<path d="M2797 7943 c-10 -2 -14 -9 -10 -16 4 -6 5 -196 3 -422 -2 -225 -4
-475 -4 -555 0 -143 -6 -170 -33 -148 -19 15 -27 -13 -18 -68 9 -62 14 -74 34
-75 16 0 70 -59 53 -59 -14 0 -33 -48 -20 -52 14 -5 20 -76 6 -84 -7 -5 -9 0
-6 14 4 12 2 22 -3 22 -5 0 -9 -30 -9 -67 0 -64 -8 -83 -12 -30 -1 15 -6 27
-10 27 -16 0 -8 -148 11 -209 23 -75 102 -177 162 -210 132 -72 88 -66 474
-67 193 -1 379 -4 415 -8 36 -4 97 -9 135 -12 39 -3 97 -9 130 -14 110 -18
341 -24 350 -10 4 7 2 16 -6 21 -25 15 -2 21 108 26 151 7 178 13 179 42 l1
23 -172 -4 c-132 -3 -174 -1 -184 9 -10 11 0 13 51 14 123 1 193 10 208 24 8
8 10 15 4 15 -6 0 -11 7 -11 15 0 45 173 -12 211 -70 21 -31 87 -50 127 -36
47 16 116 78 160 145 32 48 45 60 63 58 46 -6 59 100 43 337 -5 72 -4 108 4
117 6 8 9 25 7 39 -4 21 0 26 29 36 19 6 40 8 48 5 8 -3 15 -1 15 4 0 12 30
28 67 34 29 6 30 4 44 -52 l14 -57 3 43 c2 23 8 42 14 42 7 0 8 -13 5 -35 -3
-21 -2 -33 4 -30 5 4 9 1 9 -6 0 -7 10 -23 22 -36 12 -13 16 -23 10 -23 -7 0
-12 -6 -12 -14 0 -8 -6 -17 -12 -19 -10 -4 -10 -7 -1 -14 14 -10 21 -88 10
-100 -4 -3 -7 7 -8 23 0 27 -1 27 -9 7 -5 -12 -7 -35 -5 -52 2 -17 0 -31 -5
-31 -6 0 -10 8 -11 18 -1 9 -5 1 -9 -18 -9 -37 0 -130 20 -196 17 -58 105
-162 170 -201 103 -62 122 -64 491 -62 184 1 363 -1 399 -5 36 -4 110 -11 165
-17 55 -6 141 -14 190 -19 179 -19 292 -9 244 21 -23 14 -6 18 87 24 108 6
185 15 195 21 4 2 5 13 2 25 -6 20 -10 21 -174 18 -125 -3 -171 -1 -181 9 -9
9 0 12 47 13 134 2 200 10 214 24 11 11 12 15 3 15 -7 0 -11 4 -8 9 4 5 0 12
-6 14 -7 3 11 6 40 6 40 1 61 -4 79 -19 14 -11 32 -20 39 -20 7 0 28 -16 45
-35 35 -38 93 -59 134 -49 53 13 195 162 195 203 0 6 12 8 29 5 25 -5 30 -2
40 27 12 35 13 187 2 319 -5 61 -3 92 6 110 7 13 10 33 8 45 -2 11 -7 43 -9
70 -19 201 -19 207 -5 215 11 7 11 13 0 33 -16 30 -11 83 8 79 11 -2 12 10 8
60 -18 188 -28 367 -31 566 l-4 223 -91 2 c-50 1 -91 -1 -91 -4 0 -3 -22 -6
-49 -5 -27 1 -47 4 -44 9 8 13 -57 7 -88 -8 -22 -12 -38 -14 -64 -6 -19 5 -35
6 -35 3 0 -10 -263 -9 -278 1 -7 5 -18 4 -25 -1 -7 -6 -78 -9 -167 -7 -85 1
-159 -1 -165 -4 -19 -11 -34 -9 -46 5 -9 11 -7 14 15 14 16 0 25 4 21 10 -3 6
-19 10 -36 10 -16 0 -29 -4 -29 -10 0 -5 -8 -10 -17 -10 -12 0 -14 -3 -6 -8
25 -16 -2 -32 -36 -22 -19 5 -38 7 -44 3 -6 -3 -7 -1 -3 5 4 7 -3 14 -19 18
-13 3 -23 9 -21 13 4 5 -85 5 -232 -2 -28 -1 -53 1 -55 5 -1 4 -31 3 -67 -1
-36 -4 -123 -5 -195 -3 -399 11 -493 13 -520 8 l-30 -6 0 -418 c0 -230 -1
-441 -3 -469 -4 -55 0 -51 -84 -69 -9 -2 -23 2 -30 9 -8 7 -41 12 -86 11 l-73
0 3 40 c2 27 7 40 16 38 20 -4 25 24 13 75 -16 73 -30 316 -34 593 l-2 185
-92 0 c-51 0 -93 -2 -93 -5 0 -3 -22 -5 -49 -5 -27 0 -47 3 -44 8 8 13 -57 7
-80 -7 -17 -11 -43 -13 -115 -7 -52 3 -96 3 -98 -1 -6 -9 -155 -5 -171 5 -6 4
-22 3 -35 -2 -12 -5 -62 -8 -110 -6 -49 1 -88 -2 -88 -6 0 -5 -10 -5 -23 0
-30 12 -106 8 -115 -5 -4 -6 -14 -3 -24 8 -17 17 -17 18 7 18 14 0 25 5 25 10
0 6 -16 10 -36 10 -21 0 -33 -4 -29 -10 3 -5 -1 -10 -9 -10 -10 0 -13 -6 -10
-15 4 -10 13 -13 25 -10 11 4 19 2 19 -5 0 -8 -16 -9 -52 -5 -29 4 -58 7 -65
8 -7 0 -14 6 -17 14 -3 7 -13 13 -21 13 -9 0 -14 3 -11 8 4 6 -124 6 -251 -1
-22 -1 -39 2 -36 6 3 4 -19 5 -49 0 -29 -4 -120 -6 -203 -4 -387 7 -541 9
-558 4z m3958 -43 c3 -6 -4 -10 -17 -10 -18 0 -20 2 -8 10 19 12 18 12 25 0z
m-3878 -272 c-2 -18 -4 -4 -4 32 0 36 2 50 4 33 2 -18 2 -48 0 -65z m1821 75
c-10 -2 -28 -2 -40 0 -13 2 -5 4 17 4 22 1 32 -1 23 -4z m2695 0 c-13 -2 -33
-2 -45 0 -13 2 -3 4 22 4 25 0 35 -2 23 -4z m-2978 -13 c-3 -5 -14 -10 -23
-10 -15 0 -15 2 -2 10 20 13 33 13 25 0z m178 3 c-13 -2 -35 -2 -50 0 -16 2
-5 4 22 4 28 0 40 -2 28 -4z m2517 -3 c0 -5 -8 -10 -17 -10 -15 0 -16 2 -3 10
19 12 20 12 20 0z m158 3 c-16 -2 -40 -2 -55 0 -16 2 -3 4 27 4 30 0 43 -2 28
-4z m-3640 -18 c189 -2 346 -6 348 -8 6 -6 -85 -21 -108 -18 -9 1 -19 -2 -22
-7 -3 -5 -42 -7 -87 -5 -73 4 -80 2 -66 -12 18 -18 44 -20 49 -3 3 9 12 9 37
0 18 -7 45 -9 59 -5 17 4 23 2 18 -6 -12 -18 89 -18 112 1 8 7 12 7 12 -1 0
-8 52 -9 183 -5 367 11 621 10 645 -4 52 -30 95 -143 69 -179 -5 -7 -6 -27 -3
-45 8 -41 9 -74 2 -113 -5 -27 -5 -28 3 -5 5 14 9 19 10 12 1 -8 11 -11 31 -7
l30 5 -1 -67 c-1 -38 -4 -56 -6 -41 -2 15 -12 33 -22 40 -10 7 -20 20 -24 28
-3 10 -6 7 -6 -8 -1 -13 -6 -33 -12 -44 -8 -15 -8 -22 0 -27 7 -5 9 -50 6
-134 -3 -71 -1 -126 3 -123 5 3 8 -16 6 -42 -2 -63 -16 -444 -16 -457 0 -5 4
-20 8 -33 5 -18 -2 -30 -35 -62 -34 -32 -40 -44 -35 -64 10 -43 -37 -48 -404
-42 -180 2 -328 5 -329 5 -2 1 -3 8 -3 16 0 18 3 17 -40 5 -25 -7 -36 -7 -41
2 -6 9 -14 7 -30 -7 -12 -11 -19 -14 -15 -7 5 8 0 12 -13 12 -23 0 -28 -15 -8
-23 7 -4 6 -6 -5 -6 -9 -1 -24 2 -32 5 -14 5 -12 10 9 30 25 23 25 24 5 24
-12 0 -18 -5 -15 -10 3 -6 -3 -14 -14 -18 -11 -4 -20 -11 -20 -17 0 -5 -5 -11
-12 -14 -7 -2 -9 1 -5 8 4 6 0 12 -11 12 -53 4 -68 8 -71 18 -5 14 -79 14 -88
0 -4 -8 -9 -7 -14 2 -7 10 -12 10 -26 -2 -10 -8 -15 -9 -11 -2 4 7 0 14 -10
16 -10 3 2 5 27 5 39 -1 105 4 215 16 17 2 67 7 113 11 45 5 85 12 89 17 3 6
-19 7 -59 3 -90 -10 -168 -11 -160 -3 4 4 25 8 47 10 22 2 -69 4 -202 3 -133
0 -245 -3 -249 -8 -4 -4 -48 -8 -98 -8 -63 -1 -82 -4 -61 -9 17 -4 26 -9 20
-10 -5 -1 -14 -3 -20 -5 -5 -1 -16 -3 -22 -3 -7 -1 -13 -7 -13 -13 0 -8 5 -8
15 1 8 7 15 8 15 3 0 -5 19 -10 43 -11 40 -1 41 -1 18 12 -31 17 -14 28 38 24
33 -1 38 -4 29 -15 -9 -11 -7 -15 10 -20 12 -3 22 -13 22 -22 0 -10 -3 -12 -8
-5 -4 7 -41 11 -97 11 -69 0 -100 5 -133 20 -42 20 -101 85 -102 113 0 12 -4
10 -15 -4 -13 -17 -15 -17 -15 -4 0 9 5 20 10 23 6 3 10 14 10 23 0 15 -2 15
-10 2 -6 -10 -7 -3 -3 24 4 25 3 37 -4 33 -7 -4 -6 7 0 33 6 22 12 38 13 37 1
-1 5 -32 8 -69 6 -66 38 -149 50 -129 4 5 1 13 -5 16 -6 4 -8 23 -5 49 4 29 3
35 -3 21 -8 -16 -10 -17 -10 -3 -1 9 4 20 10 23 6 4 9 19 8 33 -2 15 -1 32 2
37 3 6 7 46 8 90 2 44 6 127 11 185 4 58 4 109 -1 114 -5 5 -3 16 4 24 8 10
11 46 9 111 -2 53 4 148 12 211 21 150 21 230 1 230 -10 0 -7 8 10 26 14 15
25 30 25 33 0 4 13 15 30 24 25 15 56 18 192 19 90 1 173 -2 185 -6 19 -6 25
-3 33 19 23 62 -29 78 -205 63 -44 -3 -113 -9 -153 -12 -62 -5 -78 -10 -103
-33 -16 -15 -29 -33 -29 -38 0 -6 -9 -17 -20 -25 -14 -10 -16 -17 -9 -26 7 -9
3 -18 -13 -34 -23 -21 -23 -23 -24 -296 -1 -151 -4 -277 -8 -281 -3 -3 -7 117
-8 268 -2 314 -2 312 5 359 2 19 5 40 6 47 0 6 9 13 18 15 10 2 18 12 18 23 0
13 10 22 30 29 72 22 87 29 73 37 -7 5 2 6 22 3 19 -3 190 -7 378 -9z m2704
-1 c193 1 347 -3 345 -8 -1 -4 -20 -10 -41 -12 -21 -2 -45 -9 -54 -16 -13 -11
-14 -11 -7 1 6 11 3 13 -16 6 -13 -4 -46 -7 -74 -7 l-50 2 35 -16 c19 -8 44
-13 56 -10 15 4 24 0 28 -11 4 -10 10 -13 14 -8 4 6 74 10 162 11 85 0 290 2
455 5 280 4 302 3 328 -15 24 -17 41 -46 17 -31 -16 10 -11 -1 7 -16 11 -10
14 -10 9 -1 -4 6 -5 12 -2 12 3 0 13 -14 22 -32 12 -24 16 -57 15 -145 -2
-119 -3 -117 47 -113 20 1 22 -3 22 -54 0 -61 -5 -69 -20 -31 -20 52 -63 12
-55 -52 16 -135 16 -153 6 -153 -6 0 -11 -5 -11 -11 0 -5 4 -8 9 -5 11 7 16
-119 8 -209 -8 -89 -10 -369 -2 -387 8 -20 -25 -72 -56 -89 -16 -8 -19 -17
-14 -38 10 -48 -34 -53 -393 -48 -172 2 -315 7 -319 10 -3 4 0 7 8 7 44 2 113
10 117 15 3 3 -24 5 -61 5 -52 0 -68 -4 -76 -17 -9 -16 -10 -16 -11 -2 0 12
-8 16 -30 14 -17 -1 -33 -5 -37 -9 -10 -10 -25 -7 -18 4 11 17 -17 11 -32 -7
-7 -10 -12 -13 -11 -8 3 11 -4 15 -29 15 -16 -1 -16 -2 1 -15 20 -15 20 -15 0
-15 -22 0 -57 20 -36 20 7 0 11 4 7 10 -7 12 -35 2 -32 -12 1 -6 -4 -13 -12
-16 -8 -3 -11 0 -7 7 5 7 -2 12 -16 12 -13 1 -30 2 -39 3 -9 1 -23 7 -32 15
-16 13 -48 12 -115 -3 -12 -3 -20 -1 -17 4 3 5 -3 11 -12 13 -10 3 0 5 22 4
22 0 74 3 115 7 107 11 125 13 218 21 45 5 85 12 88 17 3 4 -23 6 -58 2 -96
-9 -168 -10 -160 -2 4 4 25 8 47 10 64 6 -441 -2 -545 -9 -70 -5 -87 -8 -65
-13 l30 -8 -27 -1 c-16 0 -28 -6 -28 -12 0 -8 -6 -7 -17 2 -15 11 -16 11 -6 0
7 -8 37 -15 70 -17 48 -2 54 -1 36 8 -34 16 -28 28 14 28 20 0 33 -3 30 -7 -4
-3 5 -15 20 -25 l28 -18 -55 -2 c-156 -6 -221 17 -265 96 -28 49 -29 50 -37
26 -6 -20 -7 -18 -3 9 3 18 6 79 7 135 l1 101 7 -105 c6 -84 12 -112 30 -140
17 -27 20 -30 15 -10 -10 33 -9 58 9 260 3 36 9 108 12 160 3 52 8 98 11 103
2 4 -1 14 -7 22 -9 11 -9 19 -1 28 6 8 11 76 12 180 1 107 5 165 11 161 6 -4
9 16 6 54 -1 33 0 58 5 55 4 -2 7 19 7 47 0 35 -5 52 -14 56 -16 6 -15 8 44
73 27 29 33 31 102 32 40 0 102 2 137 3 36 1 89 -1 118 -4 33 -4 61 -1 75 6
13 7 27 10 32 7 5 -4 6 -1 2 6 -5 7 -14 10 -21 7 -9 -3 -15 4 -17 22 -3 25 -7
27 -62 32 -93 9 -367 -15 -380 -32 -6 -8 -19 -17 -28 -21 -10 -3 -18 -13 -18
-20 0 -8 -9 -22 -20 -32 -14 -12 -18 -25 -14 -41 4 -17 2 -24 -9 -24 -8 0 -18
-8 -21 -17 -4 -9 -6 -111 -6 -227 1 -309 1 -340 -5 -334 -4 4 -14 382 -15 563
0 48 18 125 31 125 4 0 14 12 21 28 9 18 22 28 41 30 15 2 27 8 27 13 0 6 4 7
10 4 5 -3 22 1 37 9 16 8 33 11 38 7 6 -4 166 -7 357 -7z m-755 -56 c-3 -7 -5
-2 -5 12 0 14 2 19 5 13 2 -7 2 -19 0 -25z m-2697 -129 c0 -22 -4 -38 -8 -35
-8 5 -4 76 4 76 2 0 4 -18 4 -41z m2698 16 c-3 -3 -9 2 -12 12 -6 14 -5 15 5
6 7 -7 10 -15 7 -18z m-1 -277 c3 -145 1 -210 -6 -203 -5 6 -11 44 -12 85 -3
132 1 344 7 337 3 -3 8 -101 11 -219z m-2695 -130 c1 -174 -1 -320 -5 -324
-20 -20 -28 21 -26 127 3 213 4 234 13 241 6 4 6 12 0 20 -5 7 -8 74 -6 148 6
245 20 114 24 -212z m2015 -165 c-3 -10 -5 -2 -5 17 0 19 2 27 5 18 2 -10 2
-26 0 -35z m-2083 -33 c-6 -6 -10 -3 -10 10 0 13 4 16 10 10 7 -7 7 -13 0 -20z
m2439 13 c-7 -2 -21 -2 -30 0 -10 3 -4 5 12 5 17 0 24 -2 18 -5z m-2186 -85
c-3 -8 -6 -5 -6 6 -1 11 2 17 5 13 3 -3 4 -12 1 -19z m2243 -18 c0 -17 -43
-28 -62 -17 -9 6 -14 15 -12 19 8 12 74 10 74 -2z m41 -5 c-1 -15 -24 -12 -29
3 -3 9 2 13 12 10 10 -1 17 -7 17 -13z m220 -33 c-7 -2 -18 1 -23 6 -8 8 -4 9
13 5 13 -4 18 -8 10 -11z m-2786 -72 c1 -11 -2 -20 -7 -20 -4 0 -8 12 -8 27 0
30 13 24 15 -7z m39 -17 c-8 -50 -11 -51 -16 -9 -2 19 0 32 4 30 4 -3 8 0 8 5
0 6 2 11 5 11 3 0 2 -17 -1 -37z m62 -119 c1 -76 -3 -129 -7 -122 -5 8 -9 -7
-9 -38 0 -57 29 -159 60 -210 26 -41 83 -91 124 -109 17 -7 52 -23 78 -34 26
-12 56 -21 66 -21 10 0 27 -7 38 -15 17 -13 14 -14 -36 -10 -30 2 -68 11 -85
19 -16 9 -48 23 -70 33 -22 9 -44 19 -49 21 -5 3 -5 -1 -1 -8 5 -9 4 -11 -4
-6 -6 4 -9 11 -6 15 5 9 -35 50 -50 50 -5 0 -13 10 -16 23 -3 13 -10 22 -16
21 -6 -1 -10 3 -10 10 1 7 -6 37 -15 67 -31 102 -37 130 -26 124 7 -4 8 8 3
37 -10 57 -10 125 -1 169 5 22 4 30 -2 22 -14 -20 -22 20 -10 43 8 14 12 15
19 4 6 -9 9 -1 9 25 0 22 3 36 7 32 5 -4 8 -68 9 -142z m2691 109 c-3 -10 -5
-4 -5 12 0 17 2 24 5 18 2 -7 2 -21 0 -30z m-57 -4 c0 -17 -4 -28 -10 -24 -5
3 -10 17 -10 31 0 13 5 24 10 24 6 0 10 -14 10 -31z m44 -15 c13 -5 16 -24 16
-104 0 -55 -4 -102 -10 -105 -5 -3 -10 -16 -10 -27 0 -12 -3 -18 -7 -14 -12
11 -14 176 -3 176 6 0 10 7 10 16 0 8 -4 13 -9 10 -12 -8 -19 14 -13 37 5 19
5 19 26 11z m-2744 -314 c-6 -66 -7 -69 -9 -25 -1 28 -3 67 -4 87 -2 27 1 34
9 25 6 -8 8 -39 4 -87z m2704 58 c-10 -16 -21 -7 -21 17 0 23 1 24 12 8 7 -10
11 -21 9 -25z m-39 -18 c3 -5 1 -10 -4 -10 -6 0 -11 5 -11 10 0 6 2 10 4 10 3
0 8 -4 11 -10z m120 -144 c29 -69 97 -130 190 -170 46 -20 92 -36 103 -36 11
0 25 -6 31 -14 11 -13 4 -14 -46 -9 -32 3 -60 9 -63 13 -7 9 -102 45 -120 45
-8 0 -15 7 -15 15 0 8 -16 25 -35 38 -19 13 -34 25 -33 28 1 2 -11 32 -27 66
-17 35 -30 73 -30 86 0 12 -5 31 -12 41 -9 15 -9 23 2 36 13 16 16 12 27 -41
6 -33 19 -76 28 -98z m-87 105 c1 -22 -3 -43 -8 -46 -6 -4 -10 12 -10 39 0 56
16 62 18 7z m-1733 -51 c-3 -5 -12 -10 -18 -10 -7 0 -6 4 3 10 19 12 23 12 15
0z m2595 6 c0 -2 -7 -7 -16 -10 -8 -3 -12 -2 -9 4 6 10 25 14 25 6z m93 -13
c-7 -2 -19 -2 -25 0 -7 3 -2 5 12 5 14 0 19 -2 13 -5z m-943 -48 c0 -5 -5 -3
-10 5 -5 8 -10 20 -10 25 0 6 5 3 10 -5 5 -8 10 -19 10 -25z m-2330 -11 c0 -2
-9 0 -20 6 -11 6 -20 13 -20 16 0 2 9 0 20 -6 11 -6 20 -13 20 -16z m2700 0
c0 -2 -9 0 -20 6 -11 6 -20 13 -20 16 0 2 9 0 20 -6 11 -6 20 -13 20 -16z
m-2373 10 c-3 -3 -12 -4 -19 -1 -8 3 -5 6 6 6 11 1 17 -2 13 -5z m2696 -1 c-7
-2 -19 -2 -25 0 -7 3 -2 5 12 5 14 0 19 -2 13 -5z m-679 -29 c3 -8 2 -12 -4
-9 -6 3 -10 10 -10 16 0 14 7 11 14 -7z m891 -6 c6 -4 2 -8 -7 -8 -10 0 -18 7
-18 17 0 9 3 12 8 7 4 -5 12 -12 17 -16z m-2375 2 c0 -5 -4 -10 -9 -10 -6 0
-13 5 -16 10 -3 6 1 10 9 10 9 0 16 -4 16 -10z m2700 0 c0 -5 -6 -10 -14 -10
-8 0 -18 5 -21 10 -3 6 3 10 14 10 12 0 21 -4 21 -10z m-3866 -75 l38 -50 -41
45 c-23 25 -41 49 -41 54 0 5 1 7 3 5 1 -2 20 -26 41 -54z m2725 -31 c20 -22
12 -16 -16 13 -29 30 -53 59 -53 66 0 6 7 0 16 -13 10 -14 33 -43 53 -66z
m-1856 -1 c-7 -2 -19 -2 -25 0 -7 3 -2 5 12 5 14 0 19 -2 13 -5z m80 0 c-7 -2
-21 -2 -30 0 -10 3 -4 5 12 5 17 0 24 -2 18 -5z m370 0 c-18 -2 -48 -2 -65 0
-18 2 -4 4 32 4 36 0 50 -2 33 -4z m290 0 c-34 -2 -93 -2 -130 0 -37 2 -9 3
62 3 72 0 102 -1 68 -3z m1954 1 c-3 -3 -12 -4 -19 -1 -8 3 -5 6 6 6 11 1 17
-2 13 -5z m456 -1 c-18 -2 -48 -2 -65 0 -18 2 -4 4 32 4 36 0 50 -2 33 -4z
m280 0 c-35 -2 -91 -2 -125 0 -35 2 -7 3 62 3 69 0 97 -1 63 -3z m-3303 -79
c7 -7 -84 -10 -285 -10 -162 1 -295 4 -295 8 0 17 564 18 580 2z m2697 3 c13
-14 -18 -25 -51 -18 -17 4 -142 7 -278 7 -137 -1 -248 2 -248 6 0 15 562 19
577 5z m430 7 c-3 -3 -12 -4 -19 -1 -8 3 -5 6 6 6 11 1 17 -2 13 -5z"/>
<path d="M3660 7591 c0 -6 9 -9 19 -8 11 0 17 5 15 9 -7 11 -34 10 -34 -1z"/>
<path d="M4820 7566 c0 -2 7 -9 15 -16 13 -11 14 -10 9 4 -5 14 -24 23 -24 12z"/>
<path d="M4861 7484 c0 -11 3 -14 6 -6 3 7 2 16 -1 19 -3 4 -6 -2 -5 -13z"/>
<path d="M4860 7310 c0 -5 5 -10 11 -10 5 0 7 5 4 10 -3 6 -8 10 -11 10 -2 0
-4 -4 -4 -10z"/>
<path d="M4590 6393 c-14 -2 -31 -12 -37 -21 -8 -9 -13 -11 -13 -4 0 19 -66
14 -107 -8 -43 -23 -35 -28 57 -34 82 -4 181 9 192 26 23 36 -17 54 -92 41z"/>
<path d="M3150 6308 c0 -9 43 -39 48 -33 3 2 -1 12 -9 22 -9 11 -10 14 -1 9 6
-4 12 -3 12 2 0 6 -11 9 -25 8 -14 0 -25 -4 -25 -8z"/>
<path d="M3355 6254 c7 -8 20 -14 27 -14 10 0 10 2 -1 9 -11 7 -11 9 0 13 8 3
2 5 -13 5 -23 0 -25 -2 -13 -13z"/>
<path d="M4100 6219 c0 -11 50 -11 105 0 35 7 32 8 -32 9 -40 0 -73 -4 -73 -9z"/>
<path d="M4260 6220 c0 -5 12 -10 26 -10 14 0 23 4 19 10 -3 6 -15 10 -26 10
-10 0 -19 -4 -19 -10z"/>
<path d="M6384 7631 c4 -5 0 -12 -6 -14 -7 -3 4 -6 24 -6 29 -1 36 2 32 14 -4
8 -17 15 -31 15 -13 0 -22 -4 -19 -9z"/>
<path d="M6488 7593 c7 -3 16 -2 19 1 4 3 -2 6 -13 5 -11 0 -14 -3 -6 -6z"/>
<path d="M7562 7475 c0 -16 2 -22 5 -12 2 9 2 23 0 30 -3 6 -5 -1 -5 -18z"/>
<path d="M7563 7385 c0 -33 2 -45 4 -27 2 18 2 45 0 60 -2 15 -4 0 -4 -33z"/>
<path d="M7562 7300 c0 -14 2 -19 5 -12 2 6 2 18 0 25 -3 6 -5 1 -5 -13z"/>
<path d="M5821 6404 c0 -11 3 -14 6 -6 3 7 2 16 -1 19 -3 4 -6 -2 -5 -13z"/>
<path d="M7290 6393 c-14 -2 -31 -12 -37 -21 -8 -9 -13 -11 -13 -4 0 7 -16 12
-41 12 -28 0 -38 -4 -33 -12 4 -6 3 -8 -3 -5 -6 4 -24 0 -39 -8 -22 -11 -25
-15 -12 -20 16 -6 103 -9 189 -6 55 1 94 27 84 54 -7 17 -36 20 -95 10z"/>
<path d="M5840 6321 c0 -14 36 -51 50 -51 5 0 8 10 6 23 -2 12 -9 21 -16 19
-7 -1 -18 3 -26 9 -10 8 -14 8 -14 0z"/>
<path d="M6043 6263 c9 -2 17 -9 17 -14 0 -5 8 -9 17 -9 15 0 14 2 -3 15 -10
8 -26 14 -34 14 -11 -1 -10 -3 3 -6z"/>
<path d="M6595 6240 c4 -6 11 -8 16 -5 14 9 11 15 -7 15 -8 0 -12 -5 -9 -10z"/>
<path d="M6688 6243 c7 -3 16 -2 19 1 4 3 -2 6 -13 5 -11 0 -14 -3 -6 -6z"/>
<path d="M6960 6219 c0 -5 12 -9 27 -9 30 0 27 9 -6 15 -11 2 -21 0 -21 -6z"/>
<path d="M2782 6600 c0 -14 2 -19 5 -12 2 6 2 18 0 25 -3 6 -5 1 -5 -13z"/>
<path d="M5476 6604 c-4 -9 -4 -19 -1 -22 2 -3 7 3 11 12 4 9 4 19 1 22 -2 3
-7 -3 -11 -12z"/>
<path d="M5669 5509 c-11 -6 -11 -14 -1 -42 7 -18 12 -40 12 -49 0 -8 8 -22
19 -32 23 -21 37 -6 39 41 4 62 -32 105 -69 82z"/>
<path d="M5860 5469 c0 -5 5 -7 10 -4 6 3 10 8 10 11 0 2 -4 4 -10 4 -5 0 -10
-5 -10 -11z"/>
<path d="M5811 5174 c0 -11 3 -14 6 -6 3 7 2 16 -1 19 -3 4 -6 -2 -5 -13z"/>
<path d="M5050 4520 c-13 -8 -13 -10 2 -10 9 0 20 5 23 10 8 13 -5 13 -25 0z"/>
<path d="M1961 8454 c0 -11 3 -14 6 -6 3 7 2 16 -1 19 -3 4 -6 -2 -5 -13z"/>
<path d="M1953 5945 c0 -22 2 -30 4 -17 2 12 2 30 0 40 -3 9 -5 -1 -4 -23z"/>
<path d="M4817 3911 c27 -22 71 -18 52 5 -6 8 -26 14 -43 14 l-31 -1 22 -18z"/>
<path d="M4860 3880 c0 -5 5 -10 11 -10 5 0 7 5 4 10 -3 6 -8 10 -11 10 -2 0
-4 -4 -4 -10z"/>
<path d="M4890 3880 c0 -5 5 -10 10 -10 6 0 10 5 10 10 0 6 -4 10 -10 10 -5 0
-10 -4 -10 -10z"/>
<path d="M4928 3883 c6 -2 18 -2 25 0 6 3 1 5 -13 5 -14 0 -19 -2 -12 -5z"/>
<path d="M6400 3873 c0 -5 9 -18 20 -28 11 -10 20 -14 20 -8 0 5 -9 18 -20 28
-11 10 -20 14 -20 8z"/>
<path d="M4833 3402 c-8 -5 -9 -13 -3 -22 6 -10 13 -11 19 -5 13 13 -1 36 -16
27z"/>
<path d="M5793 3383 c9 -2 25 -2 35 0 9 3 1 5 -18 5 -19 0 -27 -2 -17 -5z"/>
<path d="M5898 3383 c12 -2 30 -2 40 0 9 3 -1 5 -23 4 -22 0 -30 -2 -17 -4z"/>
<path d="M5993 3383 c20 -2 54 -2 75 0 20 2 3 4 -38 4 -41 0 -58 -2 -37 -4z"/>
<path d="M4895 3360 c3 -5 8 -10 11 -10 2 0 4 5 4 10 0 6 -5 10 -11 10 -5 0
-7 -4 -4 -10z"/>
<path d="M6013 2997 c-24 -5 -44 -17 -46 -26 -4 -14 -5 -14 -6 0 -1 20 -57 13
-88 -11 -31 -24 -14 -30 80 -30 85 0 122 15 122 49 0 29 -8 31 -62 18z"/>
<path d="M4929 2889 c-10 -6 -5 -9 16 -10 28 -1 29 -1 6 -8 -14 -4 -27 -13
-29 -21 -4 -12 -2 -13 10 -3 8 7 18 10 21 6 4 -3 15 1 24 9 10 9 25 18 33 21
9 3 6 6 -10 7 -14 1 -32 3 -41 5 -9 1 -23 -1 -30 -6z"/>
<path d="M4838 2883 c7 -3 16 -2 19 1 4 3 -2 6 -13 5 -11 0 -14 -3 -6 -6z"/>
<path d="M4796 2858 c8 -12 74 -10 74 2 0 6 -17 10 -39 8 -22 -1 -38 -5 -35
-10z"/>
<path d="M5448 2843 c7 -3 16 -2 19 1 4 3 -2 6 -13 5 -11 0 -14 -3 -6 -6z"/>
<path d="M5748 2823 c6 -2 18 -2 25 0 6 3 1 5 -13 5 -14 0 -19 -2 -12 -5z"/>
<path d="M6075 2790 c3 -5 8 -10 11 -10 2 0 4 5 4 10 0 6 -5 10 -11 10 -5 0
-7 -4 -4 -10z"/>
<path d="M4548 2663 c7 -3 16 -2 19 1 4 3 -2 6 -13 5 -11 0 -14 -3 -6 -6z"/>
<path d="M4500 2650 c20 -13 33 -13 25 0 -3 6 -14 10 -23 10 -15 0 -15 -2 -2
-10z"/>
<path d="M6247 2504 c-3 -3 -32 -8 -64 -10 -39 -3 -62 -9 -70 -21 -7 -9 -13
-11 -13 -5 0 17 -89 15 -124 -3 -15 -8 -35 -15 -44 -15 -12 0 -13 -3 -4 -12
16 -16 221 -22 288 -8 63 13 84 38 55 64 -10 9 -20 13 -24 10z"/>
<path d="M4334 2376 c-3 -8 -15 -13 -25 -11 -13 3 -19 -1 -16 -8 4 -13 70 -22
94 -12 14 5 13 8 -2 25 -21 23 -43 26 -51 6z"/>
<path d="M4390 2386 c0 -10 28 -13 41 -5 10 6 7 9 -13 9 -16 0 -28 -2 -28 -4z"/>
<path d="M4438 2353 c7 -3 16 -2 19 1 4 3 -2 6 -13 5 -11 0 -14 -3 -6 -6z"/>
<path d="M5295 2340 c3 -5 12 -10 20 -10 8 0 17 5 20 10 4 6 -5 10 -20 10 -15
0 -24 -4 -20 -10z"/>
<path d="M5380 2340 c0 -5 5 -10 10 -10 6 0 10 5 10 10 0 6 -4 10 -10 10 -5 0
-10 -4 -10 -10z"/>
<path d="M5418 2343 c6 -2 18 -2 25 0 6 3 1 5 -13 5 -14 0 -19 -2 -12 -5z"/>
<path d="M5968 2313 c6 -2 18 -2 25 0 6 3 1 5 -13 5 -14 0 -19 -2 -12 -5z"/>
<path d="M5585 1020 c-20 -4 -7 -7 38 -7 38 -1 66 1 62 5 -8 8 -63 9 -100 2z"/>
<path d="M5388 1013 c12 -2 32 -2 45 0 12 2 2 4 -23 4 -25 0 -35 -2 -22 -4z"/>
<path d="M4740 10170 c-43 -7 -44 -7 -10 -9 29 -2 32 -4 15 -11 -16 -7 -14 -9
15 -9 24 -1 31 2 21 8 -16 10 33 19 134 24 33 2 17 3 -35 4 -52 0 -115 -3
-140 -7z"/>
<path d="M1883 5980 c0 -30 2 -43 4 -27 2 15 2 39 0 55 -2 15 -4 2 -4 -28z"/>
<path d="M1972 5576 c6 -14 15 -26 20 -26 10 0 -7 36 -22 45 -6 4 -5 -5 2 -19z"/>
<path d="M1825 4200 c-3 -6 1 -7 9 -4 18 7 21 14 7 14 -6 0 -13 -4 -16 -10z"/>
<path d="M1982 1350 c0 -19 2 -27 5 -17 2 9 2 25 0 35 -3 9 -5 1 -5 -18z"/>
<path d="M1935 1148 c4 -13 11 -27 16 -33 5 -5 4 5 -2 23 -12 36 -24 44 -14
10z"/>
<path d="M1960 1096 c0 -13 42 -78 47 -72 3 2 -7 22 -21 43 -14 20 -26 34 -26
29z"/>
<path d="M2540 910 c0 -5 5 -10 10 -10 6 0 10 5 10 10 0 6 -4 10 -10 10 -5 0
-10 -4 -10 -10z"/>
<path d="M2348 903 c6 -2 18 -2 25 0 6 3 1 5 -13 5 -14 0 -19 -2 -12 -5z"/>
<path d="M2508 903 c7 -3 16 -2 19 1 4 3 -2 6 -13 5 -11 0 -14 -3 -6 -6z"/>
</g>
</svg>
