<?xml version="1.0" encoding="utf-8"?>
<!-- Generator: Adobe Illustrator 17.0.0, SVG Export Plug-In . SVG Version: 6.00 Build 0)  -->
<!DOCTYPE svg PUBLIC "-//W3C//DTD SVG 1.1//EN" "http://www.w3.org/Graphics/SVG/1.1/DTD/svg11.dtd">
<svg version="1.1" id="Layer_1" xmlns="http://www.w3.org/2000/svg" xmlns:xlink="http://www.w3.org/1999/xlink" x="0px" y="0px"
	 width="243.432px" height="116.811px" viewBox="0 0 243.432 116.811" enable-background="new 0 0 243.432 116.811"
	 xml:space="preserve">
<g>
	<path fill="#CCCCCC" d="M51.07,118.463l64.05-92.41h-0.726c-17.78,18.799-29.809,31.34-36.093,37.625l-54.785,54.785H1.199
		L118.987,0.675h33.999L90.789,90.749h0.483L210.914,0.675h33.999L127.125,118.463h-23.283l55.752-55.752
		c2.631-2.631,5.707-5.667,9.224-9.104c3.518-3.437,13.012-12.568,28.481-27.393h-0.725L73.951,118.463H51.07z"/>
</g>
<g>
	<path fill="#00A99F" d="M50.641,118.426l-28.359-92.41h-0.725c1.02,18.8,1.531,31.34,1.531,37.625v54.785H0.77V0.638h33.999
		l27.876,90.073h0.483L92.696,0.638h33.999v117.788h-23.284V62.674c0-2.631,0.04-5.666,0.121-9.104
		c0.08-3.437,0.443-12.568,1.087-27.393h-0.725l-30.374,92.249H50.641z"/>
</g>
</svg>
